<?xml version="1.0" standalone="no"?>
<!DOCTYPE svg PUBLIC "-//W3C//DTD SVG 20010904//EN"
 "http://www.w3.org/TR/2001/REC-SVG-20010904/DTD/svg10.dtd">
<svg version="1.0" xmlns="http://www.w3.org/2000/svg"
 width="553.000000pt" height="500.000000pt" viewBox="0 0 553.000000 500.000000"
 preserveAspectRatio="xMidYMid meet">

<g transform="translate(0.000000,500.000000) scale(0.100000,-0.100000)"
fill="#000000" stroke="none">
<path d="M0 4820 l0 -180 25 0 c18 0 25 -5 25 -20 0 -15 -7 -20 -25 -20 l-25
0 0 -135 0 -135 45 0 c38 0 45 -3 45 -20 0 -13 -7 -20 -20 -20 -15 0 -20 -7
-20 -25 0 -18 5 -25 20 -25 13 0 20 -7 20 -20 0 -15 7 -20 25 -20 18 0 25 -5
25 -20 0 -13 7 -20 20 -20 15 0 20 -7 20 -25 0 -23 4 -25 45 -25 38 0 45 -3
45 -19 0 -13 8 -21 23 -23 14 -2 23 -11 25 -25 3 -19 10 -23 42 -23 37 0 38
-1 45 -40 5 -30 11 -40 26 -40 14 0 19 -7 19 -25 0 -18 -5 -25 -20 -25 -13 0
-20 -7 -20 -20 0 -13 7 -20 20 -20 15 0 20 -7 20 -25 0 -18 5 -25 20 -25 13 0
20 -7 20 -20 0 -15 7 -20 25 -20 20 0 25 -5 25 -25 0 -20 -5 -25 -25 -25 -18
0 -25 5 -25 19 0 13 -8 21 -22 23 -15 2 -24 11 -26 26 -2 12 -10 22 -18 22
-10 0 -14 -12 -14 -44 0 -36 3 -44 18 -42 12 1 18 -7 20 -26 3 -24 0 -28 -23
-28 -20 0 -26 -4 -23 -17 2 -10 13 -19 26 -21 14 -2 22 -10 22 -23 0 -12 7
-19 20 -19 13 0 20 -7 20 -20 0 -15 7 -20 25 -20 23 0 25 4 25 40 0 33 3 40
20 40 13 0 20 -7 20 -20 0 -13 7 -20 20 -20 13 0 20 7 20 20 0 15 7 20 25 20
18 0 25 -5 25 -20 0 -13 -7 -20 -19 -20 -17 0 -35 -32 -24 -43 11 -11 43 7 43
24 0 12 7 19 20 19 13 0 20 7 20 20 0 17 7 20 45 20 38 0 45 -3 45 -20 0 -13
-7 -20 -20 -20 -15 0 -20 -7 -20 -25 0 -18 5 -25 20 -25 13 0 20 -7 20 -20 0
-15 7 -20 25 -20 18 0 25 -5 25 -20 0 -13 7 -20 20 -20 15 0 20 -7 20 -25 0
-23 4 -25 45 -25 38 0 45 -3 45 -20 0 -13 7 -20 19 -20 13 0 21 -8 23 -22 2
-19 10 -24 46 -26 42 -3 42 -3 42 -43 0 -35 3 -39 25 -39 20 0 25 -5 25 -25 0
-20 -5 -25 -25 -25 -18 0 -25 5 -25 20 0 13 -7 20 -20 20 -13 0 -20 -7 -20
-20 0 -13 7 -20 20 -20 13 0 20 -7 20 -20 0 -15 7 -20 25 -20 18 0 25 -5 25
-20 0 -13 7 -20 20 -20 15 0 20 -7 20 -25 0 -18 5 -25 20 -25 17 0 20 7 20 45
0 38 -3 45 -20 45 -13 0 -20 7 -20 20 0 29 38 27 42 -2 2 -15 11 -24 26 -26
14 -2 22 -10 22 -23 0 -12 7 -19 20 -19 13 0 20 -7 20 -20 0 -15 7 -20 25 -20
27 0 29 -8 19 -59 -8 -36 -44 -45 -44 -11 0 13 -7 20 -20 20 -15 0 -20 7 -20
25 0 18 -5 25 -20 25 -15 0 -20 -7 -20 -25 0 -20 -5 -25 -25 -25 -18 0 -25 5
-25 19 0 13 -8 21 -22 23 -15 2 -24 11 -26 26 -2 14 -10 22 -23 22 -16 0 -19
-7 -19 -40 0 -36 3 -40 25 -40 20 0 25 -5 25 -25 0 -20 -5 -25 -25 -25 -18 0
-25 5 -25 20 0 13 -7 20 -20 20 -13 0 -20 -7 -20 -20 0 -13 7 -20 20 -20 13 0
20 -7 20 -19 0 -13 8 -21 23 -23 14 -2 23 -11 25 -25 2 -15 10 -23 23 -23 12
0 19 -7 19 -20 0 -13 7 -20 20 -20 17 0 20 7 20 45 0 41 2 45 25 45 20 0 25
-5 25 -25 0 -18 5 -25 20 -25 13 0 20 -7 20 -20 0 -15 7 -20 25 -20 18 0 25 5
25 20 0 13 7 20 20 20 13 0 20 7 20 20 0 17 7 20 45 20 38 0 45 -3 45 -20 0
-15 -7 -20 -26 -20 -21 0 -25 -4 -22 -22 2 -15 10 -23 23 -23 13 0 21 -8 23
-22 2 -15 10 -23 23 -23 12 0 19 -7 19 -20 0 -15 7 -20 25 -20 20 0 25 -5 25
-26 0 -23 3 -25 43 -22 35 2 43 7 45 26 5 32 42 30 42 -3 0 -18 -5 -25 -20
-25 -13 0 -20 -7 -20 -20 0 -13 7 -20 20 -20 13 0 20 -7 20 -20 0 -17 7 -20
45 -20 l45 0 0 -45 c0 -41 2 -45 25 -45 20 0 25 -5 25 -25 0 -20 -5 -25 -25
-25 -18 0 -25 -5 -25 -20 0 -15 7 -20 25 -20 18 0 25 -5 25 -20 0 -13 7 -20
20 -20 15 0 20 -7 20 -25 0 -18 5 -25 20 -25 17 0 20 7 20 45 0 38 3 45 19 45
13 0 21 -8 23 -22 2 -15 11 -24 26 -26 14 -2 22 -10 22 -23 0 -12 7 -19 20
-19 17 0 20 -7 20 -45 0 -38 -3 -45 -20 -45 -15 0 -20 7 -20 25 0 18 -5 25
-20 25 -13 0 -20 7 -20 20 0 29 -38 27 -42 -2 -4 -32 -52 -32 -56 0 -2 14 -10
22 -23 22 -12 0 -19 7 -19 20 0 13 -7 20 -20 20 -17 0 -20 -7 -20 -40 0 -36 3
-40 25 -40 20 0 25 -5 25 -25 0 -20 -5 -25 -25 -25 -18 0 -25 5 -25 20 0 14
-7 20 -24 20 -19 0 -23 -4 -19 -20 3 -11 14 -20 24 -20 12 0 19 -7 19 -20 0
-13 7 -20 20 -20 13 0 20 -7 20 -19 0 -13 8 -21 23 -23 14 -2 23 -11 25 -25 2
-15 10 -23 23 -23 16 0 19 7 19 45 0 41 2 45 25 45 20 0 25 -5 25 -25 0 -18 5
-25 20 -25 13 0 20 -7 20 -20 0 -13 7 -20 20 -20 13 0 20 7 20 20 0 13 -7 20
-20 20 -15 0 -20 7 -20 25 0 18 5 25 20 25 13 0 20 7 20 20 0 15 7 20 25 20
18 0 25 -5 25 -19 0 -16 8 -20 42 -23 31 -2 44 -8 46 -20 2 -11 -5 -18 -20
-20 -31 -4 -39 -48 -9 -48 13 0 21 -8 23 -22 2 -15 11 -24 26 -26 14 -2 22
-10 22 -23 0 -14 7 -19 25 -19 18 0 25 -5 25 -20 0 -17 7 -20 40 -20 33 0 40
3 40 20 0 15 7 20 25 20 33 0 35 -37 3 -42 -15 -2 -23 -10 -23 -23 0 -13 8
-21 23 -23 14 -2 22 -10 22 -23 0 -16 7 -19 45 -19 l45 0 0 -45 c0 -38 3 -45
20 -45 15 0 20 -7 20 -25 0 -18 -5 -25 -20 -25 -13 0 -20 -7 -20 -20 0 -13 7
-20 20 -20 13 0 20 -7 20 -20 0 -15 7 -20 25 -20 18 0 25 -5 25 -20 0 -13 7
-20 20 -20 17 0 20 7 20 40 0 33 3 40 20 40 15 0 20 -7 20 -25 0 -20 5 -25 25
-25 18 0 25 -5 25 -20 0 -13 7 -20 20 -20 17 0 20 -7 20 -45 0 -38 -3 -45 -20
-45 -15 0 -20 7 -20 25 0 20 -5 25 -25 25 -18 0 -25 5 -25 20 0 13 -7 20 -20
20 -15 0 -20 -7 -20 -26 0 -21 -4 -25 -22 -22 -15 2 -24 11 -26 26 -2 14 -10
22 -23 22 -12 0 -19 7 -19 20 0 13 -7 20 -20 20 -17 0 -20 -7 -20 -40 0 -33 3
-40 20 -40 15 0 20 -7 20 -25 0 -18 -5 -25 -20 -25 -13 0 -20 -7 -20 -20 0
-13 7 -20 20 -20 13 0 20 -7 20 -20 0 -15 7 -20 25 -20 20 0 25 -5 25 -25 0
-18 5 -25 20 -25 17 0 20 7 20 45 0 38 3 45 20 45 13 0 20 -7 20 -20 0 -15 7
-20 25 -20 18 0 25 5 25 20 0 13 7 20 20 20 13 0 20 -7 20 -20 0 -13 7 -20 20
-20 13 0 20 7 20 20 0 13 -7 20 -20 20 -13 0 -20 7 -20 20 0 15 7 20 25 20 18
0 25 -5 25 -20 0 -17 7 -20 40 -20 33 0 40 -3 40 -20 0 -13 -7 -20 -20 -20
-15 0 -20 -7 -20 -25 0 -18 5 -25 20 -25 13 0 20 -7 20 -20 0 -15 7 -20 25
-20 20 0 25 -5 25 -25 0 -18 5 -25 20 -25 13 0 20 -7 20 -20 0 -17 7 -20 44
-20 39 0 45 -3 48 -22 2 -15 11 -24 26 -26 14 -2 22 -10 22 -23 0 -16 7 -19
45 -19 l45 0 0 -45 c0 -38 3 -45 20 -45 15 0 20 -7 20 -25 0 -18 -5 -25 -20
-25 -11 0 -20 -7 -20 -15 0 -8 9 -15 20 -15 15 0 20 -7 20 -25 0 -20 5 -25 25
-25 18 0 25 -5 25 -20 0 -13 7 -20 20 -20 17 0 20 7 20 40 0 33 3 40 20 40 13
0 20 -7 20 -20 0 -13 7 -20 19 -20 13 0 21 -8 23 -22 2 -15 11 -24 25 -26 19
-3 23 -10 23 -42 0 -29 -4 -39 -20 -43 -16 -4 -20 0 -20 19 0 19 -5 24 -25 24
-18 0 -25 5 -25 20 0 13 -7 20 -20 20 -13 0 -20 -7 -20 -20 0 -15 -7 -20 -25
-20 -18 0 -25 5 -25 20 0 13 -7 20 -19 20 -13 0 -21 8 -23 22 -2 13 -11 24
-20 26 -15 3 -18 -4 -18 -42 0 -39 3 -46 20 -46 15 0 20 -7 20 -25 0 -18 -5
-25 -20 -25 -13 0 -20 -7 -20 -20 0 -13 7 -20 20 -20 13 0 20 -7 20 -20 0 -15
7 -20 25 -20 20 0 25 -5 25 -24 0 -19 4 -23 20 -19 16 4 20 14 20 44 0 32 3
39 20 39 13 0 20 -7 20 -20 0 -15 7 -20 25 -20 20 0 25 -5 25 -25 0 -18 5 -25
20 -25 15 0 20 7 20 25 0 18 5 25 20 25 13 0 20 7 20 20 0 13 -7 20 -20 20
-15 0 -20 7 -20 26 0 21 4 25 23 22 14 -2 23 -11 25 -26 3 -18 10 -22 43 -22
32 0 39 -3 39 -20 0 -13 -7 -20 -20 -20 -15 0 -20 -7 -20 -25 0 -18 5 -25 20
-25 13 0 20 -7 20 -20 0 -15 7 -20 25 -20 18 0 25 -5 25 -20 0 -13 7 -20 20
-20 15 0 20 -7 20 -25 0 -23 4 -25 45 -25 38 0 45 -3 45 -20 0 -13 7 -20 20
-20 15 0 20 -7 20 -25 0 -18 -5 -25 -20 -25 -13 0 -20 -7 -20 -20 0 -13 7 -20
20 -20 13 0 20 7 20 20 0 17 7 20 44 20 44 0 44 0 51 -40 5 -30 11 -40 26 -40
14 0 19 -7 19 -25 0 -18 -5 -25 -20 -25 -13 0 -20 -7 -20 -20 0 -13 7 -20 20
-20 15 0 20 -7 20 -25 0 -18 5 -25 20 -25 13 0 20 -7 20 -20 0 -15 7 -20 25
-20 20 0 25 -5 25 -25 0 -20 -5 -25 -25 -25 -18 0 -25 5 -25 19 0 13 -8 21
-22 23 -15 2 -24 11 -26 26 -2 12 -10 22 -18 22 -10 0 -14 -12 -14 -44 0 -36
3 -44 18 -42 28 2 23 -48 -6 -52 -30 -4 -25 -36 6 -40 14 -2 22 -10 22 -23 0
-12 7 -19 19 -19 11 0 21 -9 24 -21 10 -36 42 -20 45 24 3 29 7 37 23 37 12 0
19 -7 19 -20 0 -13 7 -20 19 -20 11 0 23 -9 26 -20 8 -27 45 -27 45 0 0 13 7
20 20 20 13 0 20 7 20 20 0 17 7 20 45 20 38 0 45 -3 45 -19 0 -13 -8 -21 -22
-23 -13 -2 -23 -10 -23 -18 0 -13 76 -15 617 -18 l618 -2 0 2500 0 2500 -2765
0 -2765 0 0 -180z m230 -510 c0 -15 -7 -20 -25 -20 -18 0 -25 5 -25 20 0 15 7
20 25 20 18 0 25 -5 25 -20z m130 -90 c0 -15 -7 -20 -25 -20 -18 0 -25 5 -25
20 0 15 7 20 25 20 18 0 25 -5 25 -20z m-90 -39 c0 -13 8 -21 23 -23 14 -2 23
-11 25 -25 3 -19 -1 -23 -22 -23 -21 0 -26 5 -26 25 0 18 -5 25 -20 25 -13 0
-20 7 -20 20 0 13 7 20 20 20 13 0 20 -7 20 -19z m180 -91 c0 -15 -7 -20 -25
-20 -18 0 -25 5 -25 20 0 15 7 20 25 20 18 0 25 -5 25 -20z m130 -135 c0 -18
-5 -25 -20 -25 -15 0 -20 7 -20 25 0 18 5 25 20 25 15 0 20 -7 20 -25z m180
-45 c0 -15 -7 -20 -25 -20 -18 0 -25 5 -25 20 0 15 7 20 25 20 18 0 25 -5 25
-20z m-228 -42 c2 -15 11 -24 26 -26 14 -2 22 -10 22 -23 0 -12 7 -19 20 -19
13 0 20 -7 20 -20 0 -15 7 -20 25 -20 23 0 25 -4 25 -45 0 -38 3 -45 20 -45
15 0 20 -7 20 -25 0 -18 -5 -25 -20 -25 -15 0 -20 7 -20 25 0 20 -5 25 -25 25
-18 0 -25 5 -25 20 0 13 -7 20 -20 20 -15 0 -20 7 -20 25 0 18 -5 25 -20 25
-17 0 -20 7 -20 40 0 36 -2 40 -25 40 -20 0 -25 5 -25 25 0 33 37 35 42 3z m8
-223 c0 -20 -5 -25 -25 -25 -20 0 -25 5 -25 25 0 20 5 25 25 25 20 0 25 -5 25
-25z m390 -45 c0 -13 -7 -20 -20 -20 -13 0 -20 7 -20 20 0 13 7 20 20 20 13 0
20 -7 20 -20z m138 -88 c3 -18 -1 -22 -22 -22 -19 0 -26 5 -26 18 0 39 43 43
48 4z m-88 -42 c0 -13 7 -20 20 -20 15 0 20 -7 20 -25 0 -18 -5 -25 -20 -25
-15 0 -20 7 -20 25 0 18 -5 25 -20 25 -13 0 -20 7 -20 20 0 13 7 20 20 20 13
0 20 -7 20 -20z m170 -90 c0 -13 -7 -20 -20 -20 -13 0 -20 7 -20 20 0 13 7 20
20 20 13 0 20 -7 20 -20z m138 -132 c-2 -15 -10 -23 -23 -23 -13 0 -21 8 -23
23 -3 18 1 22 23 22 22 0 26 -4 23 -22z m180 -45 c3 -19 -1 -23 -22 -23 -21 0
-26 5 -26 26 0 21 4 25 23 22 14 -2 23 -11 25 -25z m-230 -265 c-5 -34 -38
-37 -38 -4 0 20 5 26 21 26 15 0 20 -5 17 -22z m182 -3 c0 -18 -5 -25 -20 -25
-13 0 -20 -7 -20 -20 0 -15 -7 -20 -25 -20 -32 0 -36 39 -5 47 11 3 20 14 20
24 0 14 7 19 25 19 20 0 25 -5 25 -25z m1592 3 c2 -15 11 -24 26 -26 18 -3 22
-10 22 -43 0 -32 3 -39 20 -39 17 0 20 -7 20 -45 0 -41 2 -45 25 -45 23 0 25
4 25 45 0 38 3 45 20 45 18 0 20 -7 20 -64 0 -59 -2 -65 -22 -68 -20 -3 -23
-8 -20 -45 l2 -43 -45 0 -45 0 0 65 c0 58 -2 65 -19 65 -16 0 -21 9 -27 45 -5
35 -10 45 -25 45 -17 0 -19 8 -19 65 0 58 2 65 19 65 13 0 21 -8 23 -22z
m-1372 -48 c0 -13 -7 -20 -20 -20 -13 0 -20 7 -20 20 0 13 7 20 20 20 13 0 20
-7 20 -20z m360 -40 c0 -13 7 -20 20 -20 15 0 20 -7 20 -25 0 -20 5 -25 25
-25 18 0 25 -5 25 -19 0 -15 9 -20 40 -23 l39 -3 3 45 c3 38 6 45 26 48 22 3
22 3 22 -132 0 -129 1 -136 20 -136 15 0 20 -7 20 -26 0 -21 4 -25 19 -21 16
4 20 -2 26 -39 5 -35 10 -44 26 -44 14 0 19 -7 19 -25 0 -23 4 -25 45 -25 38
0 45 -3 45 -20 0 -13 7 -20 20 -20 13 0 20 -7 20 -20 0 -15 7 -20 25 -20 18 0
25 -5 25 -20 0 -13 7 -20 20 -20 18 0 20 7 20 60 0 52 -2 60 -19 60 -14 0 -20
10 -25 44 -5 32 -12 45 -26 49 -19 5 -20 15 -20 156 0 144 -1 151 -20 151 -15
0 -20 7 -20 25 0 24 2 25 65 25 58 0 65 2 65 20 0 19 7 20 90 20 83 0 90 -1
90 -20 0 -13 7 -20 19 -20 13 0 21 -8 23 -22 2 -19 9 -23 43 -24 97 -1 95 0
95 -44 0 -33 3 -40 20 -40 17 0 20 -7 20 -50 0 -43 3 -50 20 -50 13 0 20 -7
20 -20 0 -13 -7 -20 -20 -20 -29 0 -27 -38 3 -42 21 -3 22 -7 22 -93 0 -88 -1
-90 -22 -87 -19 3 -23 -2 -23 -22 0 -19 -5 -26 -20 -26 -13 0 -20 -7 -20 -20
0 -15 -7 -20 -25 -20 -18 0 -25 -5 -25 -19 0 -15 -11 -19 -67 -24 -38 -4 -87
-7 -110 -7 -39 0 -43 2 -43 25 0 23 -4 25 -43 25 -36 0 -43 -3 -43 -20 0 -14
7 -20 23 -20 18 0 23 -6 23 -25 0 -19 5 -25 21 -25 15 0 20 -5 17 -22 -2 -15
-10 -23 -23 -23 -13 0 -21 8 -23 23 -2 14 -10 22 -23 22 -12 0 -19 7 -19 19 0
13 -8 21 -22 23 -15 2 -24 11 -26 26 -2 14 -10 22 -23 22 -12 0 -19 7 -19 19
0 13 -8 21 -22 23 -15 2 -24 11 -26 26 -3 18 -10 22 -43 22 -32 0 -39 4 -39
19 0 13 -8 21 -22 23 -12 2 -25 12 -28 23 -3 11 -12 20 -20 20 -8 0 -16 10
-18 23 -2 16 -10 22 -27 22 -18 0 -22 -4 -18 -20 4 -15 0 -20 -16 -20 -14 0
-21 6 -21 20 0 15 -7 20 -25 20 -20 0 -25 5 -25 25 0 23 -4 25 -45 25 -38 0
-45 3 -45 20 0 13 -7 20 -20 20 -13 0 -20 -7 -20 -20 0 -15 -7 -20 -25 -20
-22 0 -25 4 -25 40 0 33 -3 40 -20 40 -15 0 -20 7 -20 25 0 23 -4 25 -45 25
-37 0 -45 3 -45 19 0 15 10 20 46 26 35 5 44 10 42 23 -2 9 -13 18 -26 20 -32
5 -30 42 3 42 20 0 25 5 25 25 0 18 5 25 20 25 13 0 20 7 20 20 0 15 7 20 25
20 18 0 25 -5 25 -20z m-225 -45 c0 -13 -8 -21 -22 -23 -19 -3 -23 1 -23 23 0
22 4 26 23 23 14 -2 22 -10 22 -23z m-95 -45 c0 -13 -7 -20 -20 -20 -13 0 -20
7 -20 20 0 13 7 20 20 20 13 0 20 -7 20 -20z m720 -40 c0 -13 7 -20 20 -20 15
0 20 -7 20 -25 0 -24 -2 -25 -70 -25 -63 0 -70 2 -70 20 0 13 -7 20 -20 20
-15 0 -20 7 -20 25 0 24 2 25 70 25 63 0 70 -2 70 -20z m-450 -270 c0 -13 -7
-20 -20 -20 -13 0 -20 7 -20 20 0 13 7 20 20 20 13 0 20 -7 20 -20z m1194
-141 c3 -17 6 -47 6 -65 0 -27 4 -34 20 -34 15 0 20 -7 20 -25 0 -18 5 -25 20
-25 13 0 20 -7 20 -20 0 -17 -7 -20 -40 -20 l-40 0 0 45 c0 41 -2 45 -25 45
-22 0 -25 4 -25 34 0 53 11 96 25 96 7 0 15 -14 19 -31z m-1194 -79 c0 -13 -7
-20 -20 -20 -13 0 -20 7 -20 20 0 13 7 20 20 20 13 0 20 -7 20 -20z m400 -45
c0 -18 -5 -25 -20 -25 -15 0 -20 7 -20 25 0 18 5 25 20 25 15 0 20 -7 20 -25z
m750 -64 c0 -33 4 -40 23 -43 19 -3 22 -10 25 -50 3 -40 6 -48 23 -48 13 0 19
-7 19 -21 0 -18 -5 -20 -42 -17 -35 2 -43 7 -43 23 0 13 -8 21 -22 23 -22 3
-23 8 -23 88 0 77 2 84 20 84 17 0 20 -7 20 -39z m-620 -26 c0 -18 -5 -25 -20
-25 -15 0 -20 7 -20 25 0 18 5 25 20 25 15 0 20 -7 20 -25z m490 -20 c0 -42
-2 -45 -26 -45 -21 0 -25 -4 -21 -19 4 -15 -2 -20 -35 -25 -46 -7 -58 -2 -58
25 0 12 -7 19 -20 19 -17 0 -20 7 -20 45 l0 45 90 0 90 0 0 -45z m37 13 c-3
-8 -6 -5 -6 6 -1 11 2 17 5 13 3 -3 4 -12 1 -19z m-617 -38 c0 -13 -7 -20 -20
-20 -13 0 -20 7 -20 20 0 13 7 20 20 20 13 0 20 -7 20 -20z m180 -91 c0 -12
-7 -19 -20 -19 -14 0 -20 7 -20 24 0 19 4 23 20 19 11 -3 20 -14 20 -24z m130
-129 c0 -13 -7 -20 -20 -20 -13 0 -20 7 -20 20 0 13 7 20 20 20 13 0 20 -7 20
-20z m180 -40 c0 -13 -7 -20 -20 -20 -13 0 -20 7 -20 20 0 13 7 20 20 20 13 0
20 -7 20 -20z m-220 -50 c0 -13 -7 -20 -19 -20 -10 0 -21 9 -24 20 -4 16 0 20
19 20 17 0 24 -6 24 -20z m0 -220 c0 -13 -7 -20 -19 -20 -10 0 -21 9 -24 20
-4 16 0 20 19 20 17 0 24 -6 24 -20z m400 -40 c0 -14 -7 -20 -24 -20 -19 0
-23 4 -19 20 3 11 14 20 24 20 12 0 19 -7 19 -20z m130 -90 c0 -13 -7 -20 -20
-20 -13 0 -20 7 -20 20 0 13 7 20 20 20 13 0 20 -7 20 -20z m-90 -50 c0 -15 7
-20 25 -20 18 0 25 -5 25 -20 0 -30 -47 -28 -52 3 -2 14 -9 21 -21 21 -10 -1
-17 5 -17 17 0 12 7 19 20 19 13 0 20 -7 20 -20z m180 -85 c0 -18 -5 -25 -20
-25 -15 0 -20 7 -20 25 0 18 5 25 20 25 15 0 20 -7 20 -25z m130 -130 c0 -18
-5 -25 -20 -25 -15 0 -20 7 -20 25 0 18 5 25 20 25 15 0 20 -7 20 -25z m180
-45 c0 -15 -7 -20 -25 -20 -18 0 -25 5 -25 20 0 15 7 20 25 20 18 0 25 -5 25
-20z m-220 -51 c0 -14 -7 -19 -25 -19 -18 0 -25 5 -25 19 0 11 8 21 18 24 24
5 32 -1 32 -24z m0 -214 c0 -20 -5 -25 -25 -25 -18 0 -25 5 -25 18 0 24 8 32
32 32 13 0 18 -7 18 -25z m130 -45 c0 -13 -7 -20 -20 -20 -13 0 -20 7 -20 20
0 13 7 20 20 20 13 0 20 -7 20 -20z m270 0 c0 -15 -7 -20 -25 -20 -18 0 -25 5
-25 20 0 15 7 20 25 20 18 0 25 -5 25 -20z m130 -90 c0 -15 -7 -20 -25 -20
-18 0 -25 5 -25 20 0 15 7 20 25 20 18 0 25 -5 25 -20z m-90 -40 c0 -13 7 -20
20 -20 15 0 20 -7 20 -25 0 -18 -5 -25 -20 -25 -15 0 -20 7 -20 25 0 18 -5 25
-20 25 -13 0 -20 7 -20 20 0 13 7 20 20 20 13 0 20 -7 20 -20z m180 -90 c0
-15 -7 -20 -25 -20 -18 0 -25 5 -25 20 0 15 7 20 25 20 18 0 25 -5 25 -20z
m130 -135 c0 -18 -5 -25 -20 -25 -15 0 -20 7 -20 25 0 18 5 25 20 25 15 0 20
-7 20 -25z m180 -45 c0 -15 -7 -20 -25 -20 -18 0 -25 5 -25 20 0 15 7 20 25
20 18 0 25 -5 25 -20z m-230 -45 c0 -20 5 -25 25 -25 18 0 25 -5 25 -20 0 -13
7 -20 19 -20 13 0 21 -8 23 -22 2 -15 10 -23 23 -23 14 0 20 -7 22 -25 0 -14
1 -33 2 -42 1 -11 9 -18 21 -18 15 0 20 -7 20 -25 0 -18 -5 -25 -20 -25 -13 0
-20 -7 -20 -20 0 -15 -7 -20 -25 -20 -33 0 -35 37 -2 42 14 2 23 11 25 26 3
18 -1 22 -22 22 -19 0 -26 5 -26 20 0 13 -7 20 -20 20 -15 0 -20 7 -20 25 0
18 -5 25 -19 25 -16 0 -20 8 -23 38 -2 30 -7 38 -25 40 -31 5 -33 52 -3 52 15
0 20 -7 20 -25z m10 -220 c0 -20 -5 -25 -25 -25 -20 0 -25 5 -25 25 0 20 5 25
25 25 20 0 25 -5 25 -25z m390 -45 c0 -13 -7 -20 -20 -20 -13 0 -20 7 -20 20
0 13 7 20 20 20 13 0 20 -7 20 -20z"/>
<path d="M1954 2815 c-7 -18 3 -35 22 -35 8 0 14 10 14 25 0 27 -27 35 -36 10z"/>
<path d="M1910 2760 c0 -13 7 -20 20 -20 13 0 20 -7 20 -20 0 -13 7 -20 20
-20 13 0 20 7 20 20 0 13 -7 20 -20 20 -13 0 -20 7 -20 20 0 13 -7 20 -20 20
-13 0 -20 -7 -20 -20z"/>
<path d="M2000 2760 c0 -13 7 -20 20 -20 13 0 20 7 20 20 0 13 -7 20 -20 20
-13 0 -20 -7 -20 -20z"/>
<path d="M1910 2670 c0 -13 7 -20 20 -20 13 0 20 7 20 20 0 13 -7 20 -20 20
-13 0 -20 -7 -20 -20z"/>
<path d="M2750 2670 c0 -17 -7 -20 -45 -20 -41 0 -45 -2 -45 -25 0 -18 5 -25
20 -25 16 0 19 -8 22 -62 l3 -63 42 -3 42 -3 3 48 c2 38 6 48 21 47 9 -1 28
-2 42 -3 32 -1 37 -41 5 -41 -15 0 -20 -7 -20 -25 0 -18 -5 -25 -19 -25 -13 0
-21 -8 -23 -22 -2 -17 -9 -23 -25 -22 -22 1 -23 -3 -23 -88 l0 -88 65 0 c58 0
65 2 65 19 0 13 8 21 23 23 21 3 22 7 21 91 -1 85 0 87 23 87 18 0 23 5 23 25
0 18 -5 25 -20 25 -15 0 -20 7 -20 28 0 15 -3 44 -6 65 -6 36 -8 37 -50 37
-37 0 -44 3 -44 20 0 17 -7 20 -40 20 -33 0 -40 -3 -40 -20z"/>
<path d="M2130 2540 c0 -15 7 -20 25 -20 18 0 25 5 25 20 0 15 -7 20 -25 20
-18 0 -25 -5 -25 -20z"/>
<path d="M2570 2405 c0 -8 9 -15 20 -15 11 0 20 7 20 15 0 8 -9 15 -20 15 -11
0 -20 -7 -20 -15z"/>
<path d="M0 4040 c0 -15 7 -20 25 -20 18 0 25 -5 25 -20 0 -17 7 -20 40 -20
33 0 40 3 40 20 0 13 -7 20 -20 20 -13 0 -20 7 -20 20 0 17 -7 20 -45 20 -38
0 -45 -3 -45 -20z"/>
<path d="M140 4040 c0 -13 7 -20 20 -20 13 0 20 7 20 20 0 13 -7 20 -20 20
-13 0 -20 -7 -20 -20z"/>
<path d="M190 4000 c0 -11 7 -20 15 -20 8 0 15 9 15 20 0 11 -7 20 -15 20 -8
0 -15 -9 -15 -20z"/>
<path d="M270 4000 c0 -13 7 -20 20 -20 13 0 20 7 20 20 0 13 -7 20 -20 20
-13 0 -20 -7 -20 -20z"/>
<path d="M140 3950 c0 -13 7 -20 20 -20 13 0 20 -7 20 -20 0 -15 7 -20 25 -20
18 0 25 5 25 20 0 13 7 20 20 20 13 0 20 7 20 20 0 13 -7 20 -20 20 -13 0 -20
-7 -20 -20 0 -15 -7 -20 -25 -20 -18 0 -25 5 -25 20 0 13 -7 20 -20 20 -13 0
-20 -7 -20 -20z"/>
<path d="M320 3955 c0 -8 9 -15 20 -15 11 0 20 7 20 15 0 8 -9 15 -20 15 -11
0 -20 -7 -20 -15z"/>
<path d="M360 3910 c0 -13 7 -20 20 -20 13 0 20 7 20 20 0 13 -7 20 -20 20
-13 0 -20 -7 -20 -20z"/>
<path d="M0 3691 l0 -161 25 0 c18 0 25 -5 25 -20 0 -13 7 -20 20 -20 14 0 20
-7 20 -23 0 -20 -4 -22 -45 -19 l-45 4 0 -536 0 -536 51 0 52 0 -7 -31 c-3
-17 -6 -96 -6 -175 0 -137 -1 -144 -20 -144 -20 0 -20 -7 -20 -485 l0 -485
-25 0 c-23 0 -25 -4 -25 -45 l0 -45 51 0 52 0 -7 -38 c-3 -20 -6 -101 -6 -179
0 -136 -1 -143 -20 -143 -19 0 -20 -7 -20 -130 l0 -130 -25 0 -25 0 0 -175 0
-175 72 0 71 0 -7 485 -7 485 691 0 690 0 0 -180 c0 -173 -1 -180 -20 -180
-20 0 -20 -7 -20 -305 l0 -305 40 0 40 0 0 130 0 130 690 0 690 0 0 -130 c0
-123 1 -130 20 -130 19 0 20 7 20 130 l0 130 333 0 333 0 0 -128 c-1 -121 0
-127 19 -127 19 0 20 7 20 146 l0 147 -65 6 c-36 3 -182 6 -326 6 l-261 0 -6
128 c-4 70 -7 157 -7 195 0 60 -2 67 -20 67 -19 0 -20 7 -20 155 l0 155 -330
0 -330 0 -1 163 c-1 89 0 179 1 199 1 35 -1 38 -24 38 l-26 0 0 155 0 155
-330 0 -330 0 0 200 0 200 -25 0 -25 0 0 155 0 155 -330 0 -330 0 0 200 0 200
-23 0 c-22 0 -22 1 -23 153 l-1 152 -332 3 -331 2 0 195 c0 188 -1 195 -20
195 -19 0 -20 7 -20 155 l0 155 -32 0 c-18 0 -50 3 -70 6 l-38 7 0 -162z m802
-776 c-3 -165 -4 -175 -22 -175 -18 0 -20 -9 -22 -132 l-3 -133 -132 -3 c-124
-2 -133 -4 -133 -22 0 -18 -10 -19 -175 -22 l-175 -3 0 333 0 332 333 0 332 0
-3 -175z m211 -532 l497 -6 0 -174 c0 -166 -1 -173 -20 -173 -20 0 -20 -7 -22
-357 -2 -197 -3 -415 -3 -486 l0 -127 -487 0 -488 0 0 -25 0 -25 -174 0 -174
0 -7 675 c-4 371 -5 681 -2 690 7 18 101 19 880 8z m1207 -883 l0 -180 -25 0
-25 0 0 -130 0 -130 -130 0 -130 0 0 -25 0 -25 -180 0 -180 0 0 335 0 335 335
0 335 0 0 -180z m708 -707 c-3 -176 -3 -178 -25 -181 -23 -3 -23 -6 -23 -133
l0 -129 -484 0 -485 0 -3 -22 c-3 -23 -4 -23 -178 -23 l-175 0 -3 333 -2 332
690 0 690 0 -2 -177z"/>
<path d="M310 1675 l0 -535 535 0 535 0 0 535 0 535 -535 0 -535 0 0 -535z
m400 465 c0 -18 -7 -20 -65 -20 -58 0 -65 -2 -65 -20 0 -13 -7 -20 -19 -20
-14 0 -20 -10 -25 -44 -5 -32 -12 -45 -26 -49 -12 -3 -20 -14 -20 -26 0 -14
-6 -21 -20 -21 -18 0 -20 -7 -20 -65 0 -58 2 -65 19 -65 13 0 21 -8 23 -22 3
-21 9 -23 66 -26 54 -3 62 -6 62 -22 0 -13 -7 -20 -20 -20 -17 0 -20 -7 -20
-39 0 -33 -4 -40 -22 -43 -19 -2 -24 -10 -26 -45 -3 -35 -7 -43 -23 -43 -12 0
-19 7 -19 20 0 13 -7 20 -19 20 -13 0 -21 8 -23 23 -2 14 -10 22 -23 22 -11 0
-20 7 -21 15 -1 8 -2 27 -2 43 -2 20 -7 27 -22 27 -19 0 -20 7 -20 90 0 83 1
90 20 90 13 0 20 7 20 20 0 15 7 20 25 20 23 0 25 4 25 45 0 38 3 45 19 45 13
0 21 8 23 23 2 14 11 23 26 25 14 2 22 10 22 23 0 12 7 19 20 19 13 0 20 7 20
20 0 18 7 20 65 20 58 0 65 -2 65 -20z m400 0 c0 -13 7 -20 20 -20 13 0 20 -7
20 -20 0 -13 -7 -20 -20 -20 -13 0 -20 7 -20 20 0 18 -7 20 -65 20 l-65 0 0
-129 c0 -120 -1 -129 -20 -134 -19 -5 -20 0 -20 129 0 127 1 134 20 134 13 0
20 7 20 20 0 18 7 20 65 20 58 0 65 -2 65 -20z m-352 -153 l3 -127 -27 0 c-24
0 -26 3 -20 31 3 17 6 76 6 131 0 89 2 99 18 96 15 -3 17 -19 20 -131z m92 23
l0 -110 -25 0 -25 0 0 110 0 110 25 0 25 0 0 -110z m-180 40 c0 -13 -7 -20
-19 -20 -13 0 -21 -8 -23 -22 -2 -15 -11 -24 -25 -26 -21 -3 -23 1 -23 42 l0
46 45 0 c38 0 45 -3 45 -20z m440 0 c0 -13 -7 -20 -20 -20 -15 0 -20 -7 -20
-26 0 -21 -4 -25 -22 -22 -19 2 -24 10 -26 46 l-3 42 45 0 c39 0 46 -3 46 -20z
m90 0 c0 -13 7 -20 20 -20 17 0 20 -7 20 -45 0 -41 2 -45 25 -45 18 0 25 -5
25 -20 0 -13 7 -20 20 -20 19 0 20 -7 20 -90 0 -82 -2 -90 -19 -90 -16 0 -20
-8 -23 -42 -2 -35 -7 -43 -23 -43 -13 0 -21 -8 -23 -22 -2 -15 -10 -23 -23
-23 -12 0 -19 -7 -19 -20 0 -13 -7 -20 -19 -20 -16 0 -20 8 -23 43 -2 35 -7
43 -25 45 -19 3 -23 10 -23 43 0 32 -3 39 -20 39 -13 0 -20 7 -20 20 0 13 7
20 20 20 13 0 20 -7 20 -20 0 -15 7 -20 25 -20 18 0 25 5 25 20 0 13 7 20 20
20 15 0 20 7 20 25 0 18 5 25 20 25 18 0 20 7 20 65 0 58 -2 65 -20 65 -17 0
-20 7 -20 45 0 38 -3 45 -20 45 -13 0 -20 7 -20 20 0 13 7 20 20 20 13 0 20
-7 20 -20z m-352 -218 c2 -14 10 -22 23 -22 14 0 19 -7 19 -25 0 -23 -4 -25
-45 -25 l-45 0 0 -40 c0 -33 -3 -40 -20 -40 -19 0 -20 -7 -20 -109 l0 -110 45
-7 45 -6 0 -44 0 -44 -45 0 c-41 0 -45 2 -45 24 0 18 -6 25 -22 28 -22 3 -23
7 -26 136 -3 125 -2 132 16 132 15 0 22 9 26 35 8 39 2 55 -20 55 -8 0 -14 9
-14 20 0 13 7 20 20 20 13 0 20 7 20 19 0 14 8 21 28 24 45 7 57 3 60 -21z
m-138 -2 c0 -13 -7 -20 -20 -20 -13 0 -20 -7 -20 -20 0 -15 -7 -20 -26 -20
-33 0 -30 33 4 38 14 2 22 10 22 23 0 12 7 19 20 19 13 0 20 -7 20 -20z m310
0 c0 -13 -7 -20 -20 -20 -13 0 -20 7 -20 20 0 13 7 20 20 20 13 0 20 -7 20
-20z m50 -40 c0 -13 -7 -20 -20 -20 -13 0 -20 7 -20 20 0 13 7 20 20 20 13 0
20 -7 20 -20z m-5 -202 c0 -37 3 -43 23 -46 19 -3 22 -9 22 -48 0 -37 3 -44
20 -44 13 0 20 -7 20 -20 0 -18 7 -20 70 -20 62 0 70 -2 70 -19 0 -13 -8 -21
-22 -23 -15 -2 -23 -10 -23 -23 0 -16 -8 -21 -42 -23 -39 -3 -43 -6 -44 -30
-1 -15 -2 -34 -3 -42 -1 -12 -22 -16 -108 -18 l-108 -3 0 26 c0 18 5 25 20 25
18 0 20 7 20 65 0 63 1 65 25 65 l25 0 0 110 c0 98 2 110 18 110 13 0 17 -9
17 -42z m-435 -95 c-3 -77 -1 -83 20 -83 19 0 20 -7 20 -90 l0 -91 -67 3 c-60
3 -68 5 -68 23 0 16 -8 21 -42 23 -35 3 -43 7 -43 23 0 14 -7 19 -25 19 -18 0
-25 5 -25 20 0 13 -7 20 -20 20 -15 0 -20 7 -20 25 0 25 1 25 90 25 89 0 90 0
90 25 0 18 5 25 20 25 17 0 20 7 20 40 0 36 2 40 26 40 24 0 25 -3 24 -47z"/>
<path d="M1680 615 l0 -225 580 0 580 0 0 225 0 225 -580 0 -580 0 0 -225z
m490 155 c0 -13 -7 -20 -20 -20 -13 0 -20 -7 -20 -20 0 -18 -7 -20 -65 -20
-58 0 -65 2 -65 20 0 13 7 20 20 20 13 0 20 7 20 20 0 18 7 20 65 20 58 0 65
-2 65 -20z m310 -5 c0 -18 5 -25 20 -25 11 0 20 -7 20 -15 0 -12 -13 -15 -59
-15 -50 0 -59 3 -64 20 -3 12 -14 20 -26 20 -14 0 -21 6 -21 20 0 18 7 20 65
20 63 0 65 -1 65 -25z m-572 -42 c2 -15 10 -23 23 -23 12 0 19 -7 19 -20 0
-13 7 -20 20 -20 17 0 20 -7 20 -45 0 -41 2 -45 25 -45 20 0 25 -5 25 -25 0
-20 5 -25 26 -25 19 0 25 -5 22 -17 -2 -13 -15 -19 -46 -21 -36 -3 -42 0 -42
16 0 16 -9 21 -45 26 -36 6 -45 11 -45 27 0 14 -7 19 -25 19 -23 0 -25 4 -25
45 0 38 -3 45 -20 45 -13 0 -20 7 -20 20 0 13 -7 20 -19 20 -24 0 -35 15 -27
36 4 12 20 14 68 12 57 -3 63 -5 66 -25z m842 2 c0 -20 -5 -25 -25 -25 -18 0
-25 -5 -25 -20 0 -13 -7 -20 -20 -20 -17 0 -20 -7 -20 -45 0 -38 -3 -45 -20
-45 -13 0 -20 -7 -20 -19 0 -15 -10 -20 -45 -25 -36 -6 -45 -11 -45 -27 0 -16
-7 -19 -45 -19 -38 0 -45 3 -45 19 0 13 8 21 23 23 14 2 23 11 25 26 2 14 10
22 23 22 16 0 19 7 19 45 0 38 3 45 20 45 13 0 20 7 20 20 0 15 7 20 25 20 20
0 25 5 25 25 0 24 2 25 65 25 63 0 65 -1 65 -25z m-490 -116 l0 -91 -31 6
c-17 3 -38 6 -45 6 -8 0 -14 9 -14 20 0 13 -7 20 -20 20 -13 0 -20 7 -20 20 0
13 -7 20 -20 20 -15 0 -20 7 -20 25 0 23 4 25 40 25 l40 0 0 -45 c0 -41 2 -45
25 -45 24 0 25 2 25 65 0 58 2 65 20 65 19 0 20 -7 20 -91z m175 26 c0 -13 -7
-20 -20 -20 -13 0 -21 -8 -23 -22 -2 -15 -10 -23 -23 -23 -12 0 -19 -7 -19
-20 0 -13 -7 -20 -20 -20 -13 0 -20 7 -20 20 0 13 7 20 20 20 17 0 20 7 20 46
l0 45 43 -3 c34 -2 42 -7 42 -23z"/>
<path d="M360 3820 c0 -13 7 -20 20 -20 13 0 20 7 20 20 0 13 -7 20 -20 20
-13 0 -20 -7 -20 -20z"/>
<path d="M270 3736 c0 -7 9 -16 20 -19 15 -4 20 0 20 14 0 12 -7 19 -20 19
-11 0 -20 -6 -20 -14z"/>
<path d="M360 3690 c0 -13 7 -20 20 -20 13 0 20 7 20 20 0 13 -7 20 -20 20
-13 0 -20 -7 -20 -20z"/>
<path d="M630 3380 c0 -13 7 -20 20 -20 13 0 20 7 20 20 0 13 -7 20 -20 20
-13 0 -20 -7 -20 -20z"/>
<path d="M718 3353 c-63 -5 -65 -28 -3 -37 36 -6 45 -11 45 -27 0 -16 7 -19
40 -19 33 0 40 3 40 20 0 13 -7 20 -20 20 -15 0 -20 7 -20 25 0 18 -5 24 -17
23 -10 -1 -39 -3 -65 -5z"/>
<path d="M850 3339 c0 -12 7 -19 20 -19 11 0 20 6 20 14 0 7 -9 16 -20 19 -15
4 -20 0 -20 -14z"/>
<path d="M890 3290 c0 -13 -7 -20 -20 -20 -13 0 -20 -7 -20 -20 0 -13 7 -20
20 -20 13 0 20 7 20 20 0 13 7 20 20 20 13 0 20 7 20 20 0 13 -7 20 -20 20
-13 0 -20 -7 -20 -20z"/>
<path d="M980 3290 c0 -13 7 -20 20 -20 13 0 20 7 20 20 0 13 -7 20 -20 20
-13 0 -20 -7 -20 -20z"/>
<path d="M937 3264 c-16 -16 -6 -34 19 -34 19 0 25 5 22 17 -3 19 -29 29 -41
17z"/>
<path d="M1030 3250 c0 -11 7 -20 15 -20 8 0 15 9 15 20 0 11 -7 20 -15 20 -8
0 -15 -9 -15 -20z"/>
<path d="M890 3200 c0 -13 7 -20 20 -20 13 0 20 7 20 20 0 13 -7 20 -20 20
-13 0 -20 -7 -20 -20z"/>
<path d="M1070 3115 c0 -8 9 -15 20 -15 11 0 20 7 20 15 0 8 -9 15 -20 15 -11
0 -20 -7 -20 -15z"/>
<path d="M980 3028 c0 -11 7 -18 20 -18 13 0 20 7 20 18 0 11 -7 18 -20 18
-13 0 -20 -7 -20 -18z"/>
<path d="M1340 2670 c0 -11 7 -20 15 -20 8 0 15 9 15 20 0 11 -7 20 -15 20 -8
0 -15 -9 -15 -20z"/>
<path d="M1380 2631 c0 -16 8 -20 43 -23 35 -2 43 -7 45 -25 3 -19 10 -23 43
-23 32 0 39 -3 39 -20 0 -15 7 -20 25 -20 20 0 25 -5 25 -25 0 -18 5 -25 20
-25 15 0 20 7 20 25 0 18 5 25 20 25 13 0 20 7 20 20 0 13 -7 20 -20 20 -13 0
-20 7 -20 20 0 13 -7 20 -20 20 -13 0 -20 -7 -20 -20 0 -15 -7 -20 -25 -20
-18 0 -25 5 -25 20 0 13 -7 20 -20 20 -15 0 -20 7 -20 25 0 24 -2 25 -65 25
-58 0 -65 -2 -65 -19z m260 -91 c0 -13 -7 -20 -20 -20 -13 0 -20 7 -20 20 0
13 7 20 20 20 13 0 20 -7 20 -20z"/>
<path d="M1560 2630 c0 -13 7 -20 19 -20 14 0 18 5 14 20 -3 11 -12 20 -19 20
-8 0 -14 -9 -14 -20z"/>
<path d="M1690 2580 c0 -13 7 -20 20 -20 13 0 20 -7 20 -20 0 -13 7 -20 20
-20 13 0 20 7 20 20 0 13 -7 20 -20 20 -13 0 -20 7 -20 20 0 13 -7 20 -20 20
-13 0 -20 -7 -20 -20z"/>
<path d="M1780 2495 c0 -8 9 -15 20 -15 11 0 20 7 20 15 0 8 -9 15 -20 15 -11
0 -20 -7 -20 -15z"/>
<path d="M1780 2411 c0 -15 6 -21 21 -21 14 0 19 5 17 17 -5 26 -38 29 -38 4z"/>
<path d="M1690 2320 c0 -13 7 -20 20 -20 13 0 20 7 20 20 0 13 -7 20 -20 20
-13 0 -20 -7 -20 -20z"/>
<path d="M2087 2180 c3 -11 14 -20 24 -20 12 0 19 7 19 20 0 14 -7 20 -24 20
-19 0 -23 -4 -19 -20z"/>
<path d="M2040 1966 c0 -7 9 -16 20 -19 15 -4 20 0 20 14 0 12 -7 19 -20 19
-11 0 -20 -6 -20 -14z"/>
<path d="M2090 1920 c0 -17 7 -20 39 -20 33 0 40 -4 43 -22 2 -19 10 -24 46
-26 34 -3 42 -7 42 -23 0 -14 7 -19 25 -19 20 0 25 -5 25 -24 0 -19 4 -23 20
-19 11 3 20 14 20 24 0 12 7 19 20 19 13 0 20 7 20 20 0 13 -7 20 -20 20 -13
0 -20 7 -20 20 0 13 -7 20 -20 20 -13 0 -20 -7 -20 -20 0 -15 -7 -20 -25 -20
-18 0 -25 5 -25 19 0 13 -8 21 -22 23 -15 2 -24 11 -26 26 -3 20 -9 22 -63 22
-52 0 -59 -2 -59 -20z m260 -90 c0 -13 -7 -20 -20 -20 -13 0 -20 7 -20 20 0
13 7 20 20 20 13 0 20 -7 20 -20z"/>
<path d="M2260 1920 c0 -13 7 -20 20 -20 13 0 20 7 20 20 0 13 -7 20 -20 20
-13 0 -20 -7 -20 -20z"/>
<path d="M2400 1875 c0 -8 9 -15 20 -15 11 0 20 7 20 15 0 8 -9 15 -20 15 -11
0 -20 -7 -20 -15z"/>
<path d="M2440 1830 c0 -13 7 -20 20 -20 13 0 20 7 20 20 0 13 -7 20 -20 20
-13 0 -20 -7 -20 -20z"/>
<path d="M2490 1790 c0 -11 7 -20 15 -20 8 0 15 9 15 20 0 11 -7 20 -15 20 -8
0 -15 -9 -15 -20z"/>
<path d="M2487 1700 c-4 -15 0 -20 14 -20 12 0 19 7 19 20 0 11 -6 20 -14 20
-7 0 -16 -9 -19 -20z"/>
<path d="M2400 1610 c0 -13 7 -20 20 -20 13 0 20 7 20 20 0 13 -7 20 -20 20
-13 0 -20 -7 -20 -20z"/>
<path d="M2497 1583 c-22 -6 -18 -37 6 -41 12 -3 17 3 17 22 0 14 -1 25 -2 25
-2 -1 -11 -3 -21 -6z"/>
<path d="M2750 1430 c0 -13 7 -20 20 -20 13 0 20 7 20 20 0 13 -7 20 -20 20
-13 0 -20 -7 -20 -20z"/>
<path d="M2750 1258 c0 -11 7 -18 20 -18 13 0 20 7 20 18 0 11 -7 18 -20 18
-13 0 -20 -7 -20 -18z"/>
<path d="M2800 1210 c0 -17 7 -20 40 -20 33 0 40 -3 40 -20 0 -17 7 -20 45
-20 38 0 45 3 45 20 0 13 7 20 20 20 13 0 20 7 20 20 0 13 -7 20 -20 20 -13 0
-20 -7 -20 -20 0 -15 -7 -20 -25 -20 -18 0 -25 5 -25 20 0 18 -7 20 -60 20
-53 0 -60 -2 -60 -20z"/>
<path d="M3020 1170 c0 -11 7 -20 15 -20 8 0 15 9 15 20 0 11 -7 20 -15 20 -8
0 -15 -9 -15 -20z"/>
<path d="M3110 1170 c0 -11 7 -20 15 -20 8 0 15 9 15 20 0 11 -7 20 -15 20 -8
0 -15 -9 -15 -20z"/>
<path d="M2970 1120 c0 -13 7 -20 20 -20 13 0 20 -7 20 -20 0 -15 7 -20 25
-20 18 0 25 5 25 20 0 13 7 20 20 20 13 0 20 7 20 20 0 13 -7 20 -20 20 -13 0
-20 -7 -20 -20 0 -15 -7 -20 -25 -20 -18 0 -25 5 -25 20 0 13 -7 20 -20 20
-13 0 -20 -7 -20 -20z"/>
<path d="M3150 1120 c0 -13 7 -20 20 -20 13 0 20 -7 20 -20 0 -13 7 -20 20
-20 13 0 20 7 20 20 0 13 -7 20 -20 20 -13 0 -20 7 -20 20 0 13 -7 20 -20 20
-13 0 -20 -7 -20 -20z"/>
<path d="M3190 990 c0 -13 7 -20 20 -20 13 0 20 7 20 20 0 13 -7 20 -20 20
-13 0 -20 -7 -20 -20z"/>
<path d="M3110 900 c0 -11 7 -20 15 -20 8 0 15 9 15 20 0 11 -7 20 -15 20 -8
0 -15 -9 -15 -20z"/>
<path d="M3190 860 c0 -13 7 -20 20 -20 13 0 20 7 20 20 0 13 -7 20 -20 20
-13 0 -20 -7 -20 -20z"/>
<path d="M3460 550 c0 -13 7 -20 20 -20 13 0 20 7 20 20 0 13 -7 20 -20 20
-13 0 -20 -7 -20 -20z"/>
<path d="M3502 503 c3 -18 8 -20 61 -22 20 -1 27 -6 27 -21 0 -17 7 -20 40
-20 33 0 40 3 40 20 0 13 -7 20 -20 20 -13 0 -20 7 -20 20 0 18 -7 20 -66 20
-57 0 -65 -2 -62 -17z"/>
<path d="M3680 500 c0 -14 7 -20 21 -20 12 0 23 -8 26 -20 3 -11 12 -20 19
-20 8 0 14 9 14 20 0 13 -7 20 -20 20 -13 0 -20 7 -20 20 0 13 -7 20 -20 20
-13 0 -20 -7 -20 -20z"/>
<path d="M3680 410 c0 -13 7 -20 20 -20 13 0 20 -7 20 -20 0 -15 7 -20 25 -20
18 0 25 5 25 20 0 13 7 20 20 20 13 0 20 7 20 20 0 13 -7 20 -20 20 -13 0 -20
-7 -20 -20 0 -15 -7 -20 -25 -20 -18 0 -25 5 -25 20 0 13 -7 20 -20 20 -13 0
-20 -7 -20 -20z"/>
<path d="M3860 415 c0 -8 9 -15 20 -15 11 0 20 7 20 15 0 8 -9 15 -20 15 -11
0 -20 -7 -20 -15z"/>
<path d="M3900 370 c0 -13 7 -20 20 -20 13 0 20 7 20 20 0 13 -7 20 -20 20
-13 0 -20 -7 -20 -20z"/>
<path d="M3900 280 c0 -13 7 -20 20 -20 13 0 20 7 20 20 0 13 -7 20 -20 20
-13 0 -20 -7 -20 -20z"/>
<path d="M3810 196 c0 -7 9 -16 20 -19 15 -4 20 0 20 14 0 12 -7 19 -20 19
-11 0 -20 -6 -20 -14z"/>
<path d="M3900 150 c0 -13 7 -20 20 -20 13 0 20 7 20 20 0 13 -7 20 -20 20
-13 0 -20 -7 -20 -20z"/>
</g>
</svg>
